<svg width="95" height="153" viewBox="0 0 95 153" fill="none" xmlns="http://www.w3.org/2000/svg">
<g opacity="0.2">
<path d="M43.2413 152.974C66.6843 152.974 85.6886 150.491 85.6886 147.427C85.6886 144.364 66.6843 141.881 43.2413 141.881C19.7983 141.881 0.793945 144.364 0.793945 147.427C0.793945 150.491 19.7983 152.974 43.2413 152.974Z" fill="#371A45"/>
</g>
<path d="M64.188 68.5484H32.042C27.098 68.5484 23.0901 72.5563 23.0901 77.5003V108.835C23.0901 113.779 27.098 117.787 32.042 117.787H64.188C69.1319 117.787 73.1398 113.779 73.1398 108.835V77.5003C73.1398 72.5563 69.1319 68.5484 64.188 68.5484Z" fill="white"/>
<path d="M64.1873 118.683H32.0418C26.6117 118.683 22.1938 114.265 22.1938 108.835V77.5009C22.1938 72.0704 26.6117 67.6525 32.0418 67.6525H64.1873C69.6179 67.6525 74.0353 72.0704 74.0353 77.5009V108.835C74.0353 114.265 69.6179 118.683 64.1873 118.683ZM32.0418 69.4457C27.5999 69.4457 23.9861 73.059 23.9861 77.5019V108.836C23.9861 113.278 27.5994 116.892 32.0418 116.892H64.1873C68.6298 116.892 72.2436 113.279 72.2436 108.836V77.5009C72.2436 73.0585 68.6303 69.4447 64.1873 69.4447L32.0418 69.4457Z" fill="#371A45"/>
<path d="M79.2285 100.59C79.2285 100.59 81.437 107.479 74.1771 108.957C72.8691 109.226 71.6189 109.116 70.5012 108.708C65.6834 106.931 63.3531 99.5035 69.6821 92.0706C70.016 91.6766 70.3745 91.2844 70.7575 90.8903C70.7747 90.8754 70.7908 90.8593 70.8056 90.8421C70.8056 90.8421 70.4684 90.2866 69.3945 89.5023C68.72 89.0119 67.7526 88.4294 66.3974 87.8402L63.7958 79.8769L63.791 79.8634L63.3299 78.4518L60.5164 69.8545C60.5164 69.8545 63.0943 70.7304 66.3897 72.2225C67.4785 72.7153 68.6478 73.2775 69.8281 73.8981C70.1528 74.0681 70.48 74.2449 70.8071 74.4242C70.8071 74.4242 71.5216 74.8096 72.6417 75.5043C78.3681 79.0694 94.6449 90.7766 79.2285 100.59Z" fill="white"/>
<g opacity="0.2">
<path d="M69.8267 73.8971C68.3572 75.6758 66.117 77.2324 63.3285 78.4508L60.5149 69.8535C60.5149 69.8535 63.0929 70.7294 66.3882 72.2214C67.477 72.7143 68.6444 73.2765 69.8267 73.8971Z" fill="#371A45"/>
</g>
<path d="M41.4337 68.5474L32.8855 77.9068C30.3273 76.6296 28.3178 75.046 27.0676 73.2654C31.4288 70.6069 36.3454 68.9922 41.4337 68.5474V68.5474Z" fill="#D8D8D8"/>
<path d="M65.9891 77.0846C61.7625 79.6293 55.5794 81.2331 48.6891 81.2331C41.2832 81.2331 34.693 79.3807 30.4727 76.5002C30.596 76.2381 30.7188 75.9779 30.847 75.7158C30.847 75.7158 28.4902 62.1678 40.2821 57.562C43.0487 56.9983 45.8656 56.7176 48.6891 56.7242C51.7556 56.7242 54.6814 57.0427 57.3581 57.6203C67.499 62.2733 65.3421 75.7158 65.3421 75.7158C65.5637 76.173 65.781 76.6298 65.9891 77.0846Z" fill="#D8D8D8"/>
<g opacity="0.2">
<path d="M65.6192 81.3598L66.3959 87.8378C69.9128 89.365 70.806 90.8397 70.806 90.8397C70.7897 90.8566 70.7728 90.8734 70.7579 90.8879C71.7012 90.1098 72.9668 89.22 74.2955 88.7199C74.2955 88.7199 71.7903 87.4191 71.0286 86.4127C68.5797 83.1934 68.5287 82.0319 67.5916 80.7065C67.2886 80.2826 65.2752 80.6477 65.6192 81.3598Z" fill="#371A45"/>
</g>
<g opacity="0.2">
<path d="M74.1774 108.958C81.3515 107.496 79.2789 100.751 79.2307 100.591C79.2307 100.591 77.9849 107.267 71.4992 105.436C67.3521 104.263 67.7028 98.4172 68.4944 94.3572C68.4247 94.1966 68.3669 94.0311 68.3214 93.862H68.319C62.5921 102.376 67.6807 110.283 74.1774 108.958Z" fill="#371A45"/>
</g>
<path d="M72.7779 109.999C70.0033 109.999 67.4726 108.494 66.0658 105.901C64.1821 102.432 64.171 96.6991 69.5905 90.8214C69.1183 90.382 68.2237 89.6917 66.6752 88.9545C66.5675 88.9049 66.4707 88.8343 66.3904 88.7469C66.3102 88.6596 66.2481 88.5571 66.2077 88.4456C66.1674 88.334 66.1496 88.2156 66.1553 88.0971C66.1611 87.9786 66.1904 87.8624 66.2414 87.7553C66.2924 87.6482 66.3642 87.5523 66.4526 87.4732C66.541 87.394 66.6442 87.3332 66.7563 87.2943C66.8684 87.2553 66.987 87.239 67.1054 87.2463C67.2239 87.2536 67.3396 87.2844 67.4461 87.3368C70.5665 88.8225 71.48 90.2245 71.5739 90.3796L71.9348 90.9761L71.4458 91.4723C66.1361 96.8682 65.9988 102.023 67.6397 105.048C68.9454 107.457 71.3817 108.617 73.9963 108.083C75.908 107.693 77.2464 106.865 77.9753 105.62C79.2038 103.522 78.3829 100.892 78.3747 100.866L78.1637 100.208L78.7466 99.8369C82.8701 97.2117 84.9018 94.2709 84.7861 91.096C84.487 82.903 70.5222 75.2914 70.3811 75.2153C65.4332 72.4851 60.2773 70.7242 60.2257 70.7068C60.0027 70.6289 59.8196 70.4661 59.716 70.2538C59.6124 70.0415 59.5968 69.797 59.6727 69.5733C59.7485 69.3496 59.9095 69.1648 60.1208 69.0593C60.3321 68.9537 60.5765 68.9358 60.8009 69.0095C61.0173 69.0827 66.1544 70.8359 71.2391 73.6418C71.8428 73.9665 86.2382 81.8122 86.5769 91.0286C86.7128 94.7344 84.5848 98.0852 80.2493 100.996C80.4781 102.124 80.731 104.464 79.5218 106.526C78.525 108.228 76.7863 109.343 74.3543 109.839C73.8355 109.945 73.3074 109.999 72.7779 109.999V109.999Z" fill="#371A45"/>
<path d="M79.3634 101.304C78.0626 101.789 76.6823 102.115 75.2861 102.091C75.7833 101.744 76.479 101.286 76.9839 100.946C77.5322 100.582 78.0973 100.209 78.6542 99.8759L79.3634 101.304V101.304Z" fill="#371A45"/>
<path d="M84.0746 96.887C83.9863 96.8869 83.8988 96.8693 83.8173 96.8352C83.7358 96.8012 83.6619 96.7515 83.5996 96.6888C83.5374 96.6262 83.4881 96.5518 83.4546 96.4701C83.4211 96.3884 83.4041 96.3009 83.4044 96.2126C83.4083 94.6338 81.9764 92.9399 79.7569 91.8983C77.0883 90.6456 73.0366 90.3108 69.6676 93.1249C69.6001 93.1836 69.5216 93.2282 69.4367 93.2562C69.3518 93.2842 69.2621 93.295 69.173 93.2879C69.0839 93.2808 68.997 93.256 68.9176 93.215C68.8382 93.1739 68.7677 93.1174 68.7104 93.0488C68.6531 92.9801 68.6101 92.9007 68.5838 92.8153C68.5576 92.7298 68.5486 92.6399 68.5575 92.5509C68.5665 92.462 68.593 92.3757 68.6357 92.2971C68.6784 92.2185 68.7364 92.1493 68.8062 92.0934C72.6604 88.8746 77.2854 89.2543 80.3278 90.6818C83.0185 91.9445 84.7534 94.1168 84.7481 96.2159C84.7472 96.3941 84.6759 96.5646 84.5497 96.6904C84.4235 96.8161 84.2527 96.8868 84.0746 96.887Z" fill="#371A45"/>
<path d="M70.105 90.211C71.4409 89.5365 72.8333 88.9348 74.2964 88.6385C73.0814 89.4093 72.0417 90.4167 71.0859 91.4689L70.1059 90.211H70.105Z" fill="#371A45"/>
<path d="M47.4144 117.332C47.2757 119.57 47.1861 121.806 47.1278 123.985C47.1143 124.536 47.1008 125.085 47.0897 125.627C46.9037 135.188 47.2646 143.344 46.5501 145.405C45.5731 148.21 43.0375 148.454 43.0375 148.454H34.3655C34.3655 148.454 28.3718 148.754 26.7781 147.289C25.1843 145.823 25.3419 143.742 26.5044 142.302C27.4993 141.066 29.2823 140.546 29.2823 140.546C29.2823 140.546 28.0779 131.626 26.845 119.751C26.7968 119.269 26.7443 118.784 26.6952 118.293C26.3189 114.623 25.947 110.708 25.6088 106.707L47.4144 117.332Z" fill="white"/>
<g opacity="0.2">
<path d="M47.4143 117.333C47.2755 119.571 47.1859 121.806 47.1276 123.986C47.1142 124.537 47.1007 125.085 47.0896 125.627C37.2512 126.206 30.6427 122.737 26.8459 119.75C26.7977 119.268 26.7452 118.782 26.696 118.291C26.3198 114.622 25.9478 110.707 25.6096 106.706L47.4143 117.333Z" fill="#371A45"/>
</g>
<g opacity="0.2">
<path d="M26.7781 147.289C28.368 148.751 34.3636 148.453 34.3636 148.453H43.0356C43.0356 148.453 45.5726 148.208 46.5492 145.404C46.6716 145.052 46.7631 144.524 46.8306 143.838C45.7196 144.699 44.5937 144.807 44.5937 144.807H34.7886C34.7886 144.807 28.0139 145.145 26.213 143.489C26.1185 143.403 26.0286 143.313 25.9437 143.217C25.3492 144.539 25.5009 146.114 26.7781 147.289Z" fill="#371A45"/>
</g>
<path d="M32.9713 149.383C30.9271 149.383 27.5166 149.186 26.1725 147.949C24.3856 146.306 24.2319 143.695 25.8068 141.741C26.5391 140.833 27.599 140.262 28.3019 139.959C27.8683 136.652 26.026 122.256 24.7156 106.784C24.6956 106.547 24.7705 106.312 24.9238 106.13C25.0771 105.948 25.2963 105.835 25.5332 105.815C25.77 105.795 26.0051 105.87 26.1867 106.023C26.3683 106.177 26.4815 106.396 26.5015 106.633C27.984 124.139 30.15 140.266 30.1717 140.427C30.2004 140.64 30.1519 140.855 30.0349 141.035C29.9179 141.215 29.7403 141.347 29.5343 141.407C29.5213 141.411 28.0042 141.87 27.202 142.865C26.3734 143.893 26.1089 145.456 27.3851 146.63C28.2913 147.463 31.9851 147.674 34.3193 147.56C34.3338 147.56 34.3487 147.56 34.3636 147.56H42.9807C43.2394 147.521 44.982 147.185 45.7032 145.112C46.1286 143.889 46.1291 139.606 46.13 134.648C46.13 129.673 46.13 123.481 46.5207 117.277C46.5356 117.04 46.6441 116.818 46.8224 116.661C47.0007 116.504 47.2341 116.424 47.4713 116.439C47.7085 116.454 47.9301 116.562 48.0873 116.741C48.2445 116.919 48.3245 117.152 48.3096 117.389C47.9242 123.537 47.9242 129.698 47.9242 134.648C47.9242 140.395 47.9242 144.192 47.3981 145.7C46.2461 149.011 43.2505 149.335 43.1237 149.348C43.0953 149.35 43.0664 149.352 43.038 149.352H34.3853C34.1194 149.364 33.6121 149.383 32.9713 149.383Z" fill="#371A45"/>
<path d="M38.6851 132.209C35.1455 132.209 31.0562 131.764 27.5441 130.212C27.3342 130.112 27.1717 129.934 27.091 129.715C27.0103 129.497 27.0177 129.256 27.1116 129.043C27.2055 128.83 27.3786 128.662 27.5942 128.575C27.8098 128.487 28.051 128.487 28.2667 128.574C35.8205 131.911 46.7404 129.672 46.8503 129.648C46.9654 129.624 47.0842 129.623 47.1999 129.644C47.3156 129.666 47.4259 129.71 47.5244 129.775C47.623 129.839 47.7079 129.922 47.7743 130.019C47.8408 130.117 47.8874 130.226 47.9116 130.341C47.9358 130.456 47.9371 130.575 47.9154 130.691C47.8936 130.806 47.8494 130.917 47.785 131.015C47.7207 131.114 47.6376 131.199 47.5404 131.265C47.4433 131.331 47.334 131.378 47.2188 131.402C46.9543 131.455 43.2837 132.209 38.6851 132.209Z" fill="#371A45"/>
<path d="M29.0737 139.677C31.4291 139.286 33.743 139.479 36.0517 139.862C36.1638 139.882 36.2642 139.943 36.3326 140.035C36.4009 140.126 36.4322 140.239 36.4199 140.352C36.4077 140.466 36.3529 140.57 36.2666 140.644C36.1804 140.719 36.0691 140.757 35.9553 140.753C33.7999 140.68 31.5341 140.79 29.4942 141.419C28.2705 141.756 27.8297 139.939 29.0741 139.677H29.0737Z" fill="#371A45"/>
<path d="M48.7749 117.333C48.9141 119.57 49.0037 121.806 49.064 123.985C49.077 124.537 49.0905 125.085 49.102 125.627C49.288 135.188 48.9271 143.345 49.6416 145.405C50.6182 148.21 53.1542 148.454 53.1542 148.454H61.8262C61.8262 148.454 67.8185 148.754 69.4113 147.289C71.004 145.824 70.8474 143.743 69.6844 142.303C68.6901 141.066 66.907 140.546 66.907 140.546C66.907 140.546 68.1114 131.626 69.3443 119.752C69.3925 119.27 69.445 118.784 69.4941 118.293C69.8704 114.624 70.2423 110.709 70.5805 106.708L48.7749 117.333Z" fill="white"/>
<g opacity="0.2">
<path d="M48.7749 117.333C48.9141 119.571 49.0037 121.806 49.064 123.986C49.077 124.537 49.0905 125.085 49.102 125.627C58.9404 126.206 65.5484 122.737 69.3458 119.75C69.3939 119.268 69.4464 118.782 69.4956 118.291C69.8718 114.622 70.2438 110.707 70.582 106.706L48.7749 117.333Z" fill="#371A45"/>
</g>
<g opacity="0.2">
<path d="M69.4118 147.289C67.822 148.751 61.8268 148.453 61.8268 148.453H53.1548C53.1548 148.453 50.6178 148.208 49.6412 145.404C49.5184 145.052 49.4273 144.524 49.3599 143.838C50.4708 144.699 51.5963 144.807 51.5963 144.807H61.4014C61.4014 144.807 68.1766 145.145 69.977 143.489C70.0714 143.403 70.1613 143.313 70.2463 143.217C70.8408 144.539 70.689 146.114 69.4118 147.289Z" fill="#371A45"/>
</g>
<path d="M63.2185 149.383C62.5772 149.383 62.0704 149.364 61.804 149.351H53.1537C53.1253 149.351 53.0964 149.351 53.068 149.347C52.9413 149.335 49.9451 149.01 48.7936 145.699C48.269 144.191 48.2685 140.394 48.2676 134.647C48.2676 129.697 48.2676 123.536 47.8821 117.389C47.8672 117.151 47.9472 116.918 48.1044 116.74C48.2616 116.561 48.4832 116.453 48.7204 116.438C48.9576 116.423 49.191 116.503 49.3693 116.66C49.5476 116.818 49.6561 117.039 49.671 117.276C50.0598 123.48 50.0607 129.672 50.0617 134.647C50.0617 139.606 50.0617 143.888 50.488 145.111C51.2059 147.173 52.9331 147.516 53.213 147.559H61.8281C61.843 147.559 61.858 147.559 61.8724 147.559C64.2061 147.673 67.9004 147.462 68.8066 146.629C70.0828 145.455 69.8183 143.892 68.9897 142.864C68.1875 141.869 66.6704 141.41 66.655 141.406C66.4499 141.345 66.2732 141.213 66.1568 141.033C66.0404 140.853 65.9919 140.638 66.02 140.426C66.0417 140.265 68.2078 124.138 69.6902 106.632C69.7102 106.395 69.8234 106.176 70.005 106.023C70.1866 105.869 70.4217 105.794 70.6586 105.814C70.8954 105.834 71.1146 105.948 71.2679 106.129C71.4212 106.311 71.4961 106.546 71.4761 106.783C70.1657 122.255 68.3229 136.653 67.8898 139.958C68.5927 140.261 69.6526 140.831 70.3849 141.74C71.9598 143.694 71.8061 146.305 70.0192 147.949C68.6732 149.186 65.2627 149.383 63.2185 149.383Z" fill="#371A45"/>
<path d="M57.5047 132.209C52.9051 132.209 49.2355 131.457 48.97 131.401C48.8548 131.377 48.7455 131.331 48.6484 131.264C48.5512 131.198 48.4681 131.113 48.4038 131.014C48.3395 130.916 48.2952 130.805 48.2734 130.69C48.2517 130.574 48.253 130.455 48.2772 130.34C48.3014 130.225 48.3481 130.116 48.4145 130.018C48.4809 129.921 48.5658 129.838 48.6644 129.774C48.763 129.709 48.8732 129.665 48.9889 129.643C49.1046 129.622 49.2234 129.623 49.3386 129.647C49.4479 129.67 60.3794 131.905 67.9216 128.573C68.0301 128.52 68.1483 128.488 68.2692 128.481C68.3901 128.474 68.5112 128.492 68.625 128.533C68.7389 128.575 68.8432 128.638 68.9317 128.721C69.0202 128.804 69.0911 128.903 69.1399 129.014C69.1888 129.125 69.2147 129.245 69.2161 129.366C69.2175 129.487 69.1943 129.607 69.148 129.719C69.1017 129.831 69.0332 129.932 68.9466 130.017C68.86 130.101 68.7572 130.168 68.6443 130.211C65.1336 131.761 61.0438 132.209 57.5047 132.209Z" fill="#371A45"/>
<path d="M66.6959 141.418C64.6556 140.789 62.3903 140.679 60.2348 140.752C59.6808 140.772 59.5931 139.959 60.1385 139.861C62.4471 139.478 64.7606 139.283 67.1165 139.676C68.358 139.936 67.9235 141.752 66.6964 141.418H66.6959Z" fill="#371A45"/>
<path d="M63.2185 149.383C62.5772 149.383 62.0704 149.364 61.804 149.351H53.1537C53.1253 149.351 53.0964 149.351 53.068 149.347C52.9413 149.335 49.9451 149.01 48.7936 145.699C48.269 144.191 48.2685 140.394 48.2676 134.647C48.2676 129.697 48.2676 123.536 47.8821 117.389C47.8672 117.151 47.9472 116.918 48.1044 116.74C48.2616 116.561 48.4832 116.453 48.7204 116.438C48.9576 116.423 49.191 116.503 49.3693 116.66C49.5476 116.818 49.6561 117.039 49.671 117.276C50.0598 123.48 50.0607 129.672 50.0617 134.647C50.0617 139.606 50.0617 143.888 50.4885 145.111C51.2059 147.173 52.9335 147.516 53.2135 147.559H61.8281C61.843 147.559 61.858 147.559 61.8724 147.559C64.2066 147.673 67.9004 147.462 68.8066 146.629C70.0828 145.455 69.8183 143.892 68.9897 142.864C68.1875 141.869 66.6704 141.41 66.655 141.406C66.4499 141.345 66.2732 141.213 66.1568 141.033C66.0404 140.853 65.9919 140.638 66.02 140.426C66.0417 140.265 68.2078 124.138 69.6902 106.632C69.7102 106.395 69.8234 106.176 70.005 106.023C70.1866 105.869 70.4217 105.794 70.6586 105.814C70.8954 105.834 71.1146 105.948 71.2679 106.129C71.4212 106.311 71.4961 106.546 71.4761 106.783C70.1657 122.255 68.3229 136.653 67.8898 139.958C68.5927 140.261 69.6526 140.831 70.3849 141.74C71.9598 143.694 71.8061 146.305 70.0197 147.949C68.6732 149.186 65.2627 149.383 63.2185 149.383Z" fill="#371A45"/>
<path d="M65.3431 75.7154C70.9799 87.3783 73.516 98.0515 71.7955 106.349C71.1818 109.309 70.1575 111.745 68.8466 113.747C66.0162 118.063 61.8339 120.36 57.4767 121.53C54.2922 122.385 51.0127 122.638 48.097 122.638C45.8524 122.638 43.392 122.488 40.9248 122.028C40.233 121.899 39.5407 121.746 38.8532 121.565C34.9686 120.543 31.2146 118.635 28.4208 115.213C26.5901 112.968 25.1698 110.072 24.3975 106.348C22.6771 98.051 25.2127 87.3778 30.8499 75.715" fill="white"/>
<path d="M72.3245 100.59C72.3448 102.613 72.1718 104.537 71.7946 106.349C71.7098 106.764 71.6158 107.168 71.5127 107.561C70.8898 109.983 69.9759 112.026 68.8447 113.748C66.0152 118.063 61.8329 120.359 57.4748 121.53C54.2893 122.386 51.0098 122.638 48.0955 122.638C45.851 122.638 43.3891 122.488 40.9229 122.029C40.2306 121.899 39.5383 121.747 38.8512 121.566C34.9648 120.544 31.2122 118.635 28.4169 115.212C26.7789 113.203 25.469 110.67 24.6557 107.489C24.5594 107.117 24.4741 106.738 24.3936 106.348C24.0174 104.536 23.8449 102.612 23.8637 100.589C23.9268 93.3445 26.4378 84.8301 30.8465 75.7149C30.8465 75.7149 27.5705 56.8669 48.0941 56.0763C68.6177 55.2857 65.3417 75.7149 65.3417 75.7149C69.7523 84.8311 72.2614 93.3455 72.3245 100.59Z" fill="white"/>
<g opacity="0.2">
<path d="M65.9891 77.0846C61.7625 79.6293 55.5794 81.2331 48.6891 81.2331C41.2832 81.2331 34.693 79.3807 30.4727 76.5002C30.596 76.2381 30.7188 75.9779 30.847 75.7158C30.847 75.7158 28.4902 62.1678 40.2821 57.562C43.0487 56.9983 45.8656 56.7176 48.6891 56.7242C51.7556 56.7242 54.6814 57.0427 57.3581 57.6203C67.499 62.2733 65.3421 75.7158 65.3421 75.7158C65.5637 76.173 65.781 76.6298 65.9891 77.0846Z" fill="#371A45"/>
</g>
<g opacity="0.2">
<path d="M71.7956 106.349C71.1819 109.309 70.1605 111.745 68.8457 113.748C66.0163 118.062 61.834 120.359 57.4758 121.53C54.2903 122.386 51.0109 122.638 48.0966 122.638C45.852 122.638 43.3902 122.488 40.924 122.029C40.2316 121.899 39.5393 121.747 38.8523 121.565C34.9658 120.544 31.2133 118.635 28.418 115.212C26.5873 112.968 25.1675 110.071 24.3947 106.348C23.9197 104.058 23.7684 101.588 23.9197 98.9644C23.9883 100.197 24.1471 101.422 24.3947 102.632C25.1656 106.357 26.5878 109.251 28.418 111.496C31.2123 114.919 34.9658 116.828 38.8523 117.849C39.5398 118.031 40.2321 118.183 40.924 118.313C43.3902 118.772 45.852 118.922 48.0966 118.922C51.0109 118.922 54.2903 118.669 57.4758 117.814C61.8349 116.645 66.0172 114.346 68.8457 110.032C70.1605 108.03 71.1819 105.593 71.7956 102.634C72.0435 101.424 72.2023 100.199 72.2707 98.9663C72.421 101.589 72.2707 104.06 71.7956 106.349Z" fill="#371A45"/>
</g>
<path d="M28.0701 115.497C26.3468 114.094 25.2479 112.084 24.478 110.035C22.1202 103.898 22.6087 97.0484 24.2853 90.8123C24.3443 90.5844 24.4906 90.389 24.6926 90.2681C24.8946 90.1473 25.136 90.1107 25.3647 90.1664C25.5934 90.2221 25.791 90.3656 25.9148 90.5657C26.0386 90.7659 26.0787 91.0068 26.0264 91.2363C25.8154 92.2518 25.613 93.2669 25.442 94.2854C24.8032 98.3184 24.5657 102.471 25.4131 106.477C25.9802 109.512 27.3532 112.207 28.7658 114.932C28.9941 115.361 28.4488 115.813 28.0715 115.499L28.0701 115.497Z" fill="#371A45"/>
<path d="M57.591 121.963C52.5805 123.87 46.2211 123.96 41.028 122.727C40.2538 122.512 39.4864 122.265 38.7362 121.999C38.6807 121.979 38.6295 121.949 38.5857 121.909C38.5419 121.87 38.5063 121.822 38.4809 121.769C38.4556 121.716 38.4409 121.658 38.4379 121.599C38.4348 121.541 38.4434 121.482 38.4631 121.426C38.499 121.326 38.5689 121.242 38.6604 121.189C38.752 121.135 38.8594 121.115 38.9641 121.132C39.7431 121.199 40.501 121.325 41.2636 121.41C45.0827 121.806 48.9378 121.837 52.7675 121.595C54.2995 121.488 55.8243 121.317 57.3607 121.097C57.8791 121.023 58.0834 121.768 57.591 121.964V121.963Z" fill="#371A45"/>
<path d="M68.0055 80.5393C72.5198 89.7798 75.7236 102.035 70.9044 111.733C70.1774 113.124 69.2601 114.428 68.1197 115.497C67.7396 115.845 67.1523 115.38 67.4255 114.93C74.1327 104.483 70.9034 91.8249 67.1778 80.8833C67.0083 80.3702 67.7473 80.0378 68.0055 80.5393V80.5393Z" fill="#371A45"/>
<g opacity="0.2">
<path d="M62.3557 100.59V95.2306C62.3534 94.4621 62.0471 93.7257 61.5037 93.1823C60.9603 92.6389 60.2239 92.3326 59.4554 92.3303H36.5537C35.7852 92.3326 35.0489 92.6389 34.5055 93.1823C33.962 93.7257 33.6557 94.4621 33.6535 95.2306V100.59H23.8643L24.6553 107.489C27.4443 107.113 30.5585 106.709 33.6535 106.344V109.841C33.6557 110.609 33.962 111.346 34.5055 111.889C35.0489 112.433 35.7852 112.739 36.5537 112.741H59.4554C60.2239 112.739 60.9603 112.433 61.5037 111.889C62.0471 111.346 62.3534 110.609 62.3557 109.841V106.297C65.5354 106.697 68.7267 107.148 71.5133 107.561C71.6164 107.167 71.7105 106.763 71.7956 106.349C72.1719 104.537 72.3448 102.613 72.3256 100.59H62.3557Z" fill="#371A45"/>
</g>
<path d="M60.8496 98.1998C60.8496 98.1998 68.5156 97.6154 71.7425 99.9385C75.1713 102.408 71.7165 105.264 71.7165 105.264C71.7165 105.264 65.5425 103.915 60.3577 104.108L60.8496 98.1998Z" fill="white"/>
<g opacity="0.2">
<path d="M71.7175 105.265C71.7175 105.265 65.5411 103.916 60.3577 104.109L60.5436 101.864C64.1473 101.754 68.186 102.368 70.2813 102.745C71.3951 102.946 72.5244 102.385 72.9874 101.352C72.9922 101.342 72.9966 101.332 73.0009 101.322C74.0155 103.363 71.7175 105.265 71.7175 105.265Z" fill="#371A45"/>
</g>
<path d="M35.9798 98.1998C35.9798 98.1998 28.3138 97.6154 25.0869 99.9385C21.6576 102.408 25.1124 105.264 25.1124 105.264C25.1124 105.264 31.2868 103.915 36.4717 104.108L35.9798 98.1998Z" fill="white"/>
<path d="M71.9518 106.233L71.5259 106.14C71.4652 106.127 65.3968 104.819 60.3906 105.004L59.3789 105.042L60.0206 97.3645L60.7818 97.3062C61.1085 97.2816 68.814 96.7252 72.2664 99.2116C73.48 100.086 74.1155 101.122 74.1545 102.295C74.2229 104.332 72.3671 105.89 72.2881 105.956L71.9518 106.233ZM61.4139 103.193C65.59 103.193 70.0059 104.004 71.4382 104.291C71.8449 103.858 72.3907 103.097 72.3628 102.348C72.3411 101.763 71.9561 101.197 71.219 100.666C69.0448 99.1003 64.1475 98.9534 61.6799 99.0507L61.3349 103.194L61.4139 103.193Z" fill="#371944"/>
<path d="M24.8751 106.232L24.5379 105.955C24.4589 105.889 22.6036 104.331 22.6715 102.293C22.7105 101.122 23.346 100.085 24.5596 99.2101C28.012 96.7241 35.7175 97.2796 36.0441 97.3047L36.8058 97.363L37.4447 105.04L36.4329 105.002C31.4254 104.818 25.3584 106.125 25.2977 106.138L24.8751 106.232ZM33.9258 99.028C31.3044 99.028 27.4613 99.3315 25.6079 100.666C24.8708 101.196 24.4859 101.763 24.4642 102.348C24.4362 103.096 24.9816 103.854 25.3892 104.291C26.8215 104.002 31.2379 103.193 35.413 103.193H35.494L35.149 99.0501C34.7882 99.0367 34.3748 99.028 33.9258 99.028V99.028Z" fill="#371944"/>
<path d="M61.3451 95.9157V106.832C61.3451 108.858 59.7494 110.515 57.8006 110.515H38.4443C36.4936 110.515 34.9004 108.858 34.9004 106.832V95.9157C34.9004 93.8922 36.4936 92.2349 38.4443 92.2349H57.8006C59.3572 92.2349 60.6913 93.2948 61.162 94.7512C61.2831 95.1275 61.3449 95.5204 61.3451 95.9157V95.9157Z" fill="white"/>
<g opacity="0.2">
<path d="M61.3451 95.9157V106.832C61.3451 108.858 59.7494 110.515 57.8006 110.515H38.4443C36.4936 110.515 34.9004 108.858 34.9004 106.832V103.158C38.2401 105.078 44.8558 107.96 51.4961 105.582C54.7399 104.419 58.4587 100.434 58.4587 100.434C58.4587 100.434 58.6033 104.615 59.1997 104.549C60.8604 104.366 60.8483 95.9056 61.162 94.7517C61.2831 95.1279 61.3448 95.5206 61.3451 95.9157V95.9157Z" fill="#371A45"/>
</g>
<path d="M57.9325 111.41H38.3112C37.169 111.408 36.074 110.954 35.2664 110.147C34.4587 109.339 34.0044 108.244 34.0032 107.102V95.647C34.0044 94.5049 34.4587 93.4098 35.2664 92.6022C36.074 91.7946 37.169 91.3403 38.3112 91.339H57.9325C59.0747 91.3403 60.1697 91.7946 60.9773 92.6022C61.785 93.4098 62.2392 94.5049 62.2405 95.647V107.102C62.2392 108.244 61.785 109.339 60.9773 110.147C60.1697 110.954 59.0747 111.408 57.9325 111.41ZM38.3112 93.1312C37.6442 93.132 37.0046 93.3973 36.5329 93.8689C36.0612 94.3405 35.7958 94.98 35.7949 95.647V107.102C35.7958 107.769 36.0612 108.408 36.5329 108.88C37.0046 109.352 37.6442 109.617 38.3112 109.618H57.9325C58.5995 109.617 59.239 109.352 59.7108 108.88C60.1825 108.408 60.4479 107.769 60.4488 107.102V95.647C60.4479 94.98 60.1825 94.3405 59.7108 93.8689C59.239 93.3973 58.5995 93.132 57.9325 93.1312H38.3112Z" fill="#371944"/>
<path d="M54.9792 104.549C56.6675 104.549 58.0361 103.127 58.0361 101.374C58.0361 99.621 56.6675 98.1998 54.9792 98.1998C53.291 98.1998 51.9224 99.621 51.9224 101.374C51.9224 103.127 53.291 104.549 54.9792 104.549Z" fill="#22A7F0"/>
<path d="M58.0366 101.376C58.0372 101.587 58.017 101.798 57.9764 102.006C57.6941 100.552 56.4588 99.4582 54.9788 99.4582C53.4988 99.4582 52.2635 100.552 51.9831 102.006C51.9426 101.798 51.9225 101.587 51.9229 101.376C51.9229 99.6224 53.2906 98.1998 54.9788 98.1998C56.6669 98.1998 58.0366 99.622 58.0366 101.376Z" fill="white"/>
<path d="M58.0356 101.376C58.0356 103.13 56.6664 104.55 54.9792 104.55C53.2921 104.55 51.9229 103.13 51.9229 101.376C51.9228 101.089 51.96 100.803 52.0337 100.525C52.3931 101.864 53.5754 102.848 54.9792 102.848C56.3831 102.848 57.5654 101.864 57.9248 100.525C57.9985 100.803 58.0357 101.089 58.0356 101.376Z" fill="#1C7AEA"/>
<path d="M54.9792 105.221C52.923 105.221 51.2502 103.495 51.2502 101.374C51.2502 99.253 52.923 97.5277 54.9792 97.5277C57.0354 97.5277 58.7081 99.2535 58.7081 101.374C58.7081 103.495 57.0335 105.221 54.9792 105.221ZM54.9792 98.8719C53.6644 98.8719 52.5944 99.9944 52.5944 101.374C52.5944 102.754 53.6644 103.877 54.9792 103.877C56.294 103.877 57.364 102.754 57.364 101.374C57.364 99.9944 56.294 98.8705 54.9792 98.8705V98.8719Z" fill="#371944"/>
<path d="M45.3048 111.41C45.0671 111.41 44.8392 111.315 44.6711 111.147C44.5031 110.979 44.4087 110.751 44.4087 110.514V104.925C44.4087 103.823 43.9057 102.772 43.0631 102.113L42.5717 101.728C41.2978 100.732 40.5376 99.1524 40.5376 97.5033V92.2351C40.5376 91.9974 40.632 91.7695 40.8001 91.6015C40.9681 91.4334 41.196 91.339 41.4337 91.339C41.6714 91.339 41.8993 91.4334 42.0673 91.6015C42.2354 91.7695 42.3298 91.9974 42.3298 92.2351V97.5067C42.3298 98.609 42.8328 99.6602 43.6754 100.319L44.1668 100.704C45.4406 101.701 46.2009 103.279 46.2009 104.928V110.517C46.2001 110.754 46.1054 110.981 45.9374 111.148C45.7694 111.316 45.5419 111.41 45.3048 111.41V111.41Z" fill="#371944"/>
<path d="M48.3087 91.318C48.7765 94.0733 48.4161 95.7715 47.771 96.9384C47.3476 97.7092 46.7964 98.2512 46.2814 98.7104C44.2762 100.498 37.9703 100.975 37.9703 100.975C37.9703 100.975 25.7823 106.193 18.2507 102.537C13.2311 100.097 11.9876 93.0456 14.1898 87.5322C14.3599 87.1087 14.5594 86.665 14.7901 86.1996C14.7905 86.1974 14.7905 86.1951 14.7901 86.1929C18.0118 79.6966 27.0725 69.8313 41.4323 68.5474L29.3311 81.7962L27.4396 86.9705C32.4597 86.9189 35.9767 86.7869 36.987 86.3254C37.9973 85.8638 37.6971 82.3493 38.6761 81.0027C39.2248 80.2458 41.3485 80.2839 42.023 81.7509C42.816 83.4853 41.691 85.5035 42.7485 86.2849C43.5348 86.8674 46.3619 85.9134 48.0148 87.4228C48.9471 88.2737 48.6989 90.2205 48.3087 91.318Z" fill="white"/>
<g opacity="0.2">
<path d="M41.4337 68.5474L32.8855 77.9068C30.3273 76.6296 28.3178 75.046 27.0676 73.2654C31.4288 70.6069 36.3454 68.9922 41.4337 68.5474V68.5474Z" fill="#371A45"/>
</g>
<g opacity="0.2">
<path d="M47.771 96.9386C47.3476 97.7095 46.7964 98.2515 46.2814 98.7106C44.2762 100.498 37.9703 100.975 37.9703 100.975C37.9703 100.975 25.7823 106.194 18.2507 102.537C13.2311 100.097 11.9876 93.0459 14.1898 87.5324C14.3599 87.109 14.5594 86.6653 14.7901 86.1999C14.7049 86.5313 11.5622 98.9703 20.4269 101.376C28.3863 103.537 34.7101 98.4726 37.2678 98.2014C39.3862 97.9759 44.1148 100.111 47.771 96.9386Z" fill="#371A45"/>
</g>
<path d="M41.5131 69.4412C32.7448 70.1807 24.4583 74.7026 18.9256 81.5246C17.1208 83.7639 15.4958 86.2301 14.6334 88.9829C13.4719 92.9089 13.8958 97.758 17.0047 100.625C20.2052 103.378 25.2175 103.171 29.1763 102.548C32.0679 102.053 34.898 101.249 37.618 100.15C37.7091 100.112 37.8052 100.089 37.9032 100.08C39.2573 99.9643 40.603 99.7657 41.9328 99.4852C43.1401 99.2144 44.5252 98.8589 45.5046 98.1844C47.7165 96.5425 47.873 94.0589 47.4255 91.4675C47.3999 91.3162 47.4135 91.161 47.465 91.0165C47.7271 90.2399 47.8808 89.2792 47.6534 88.5016C47.5772 88.2969 47.5247 88.1755 47.3595 88.0416C46.9986 87.7255 46.4923 87.5477 45.9016 87.4634C44.3016 87.2028 41.9135 88.0151 41.4331 85.7213C41.1157 84.2196 42.204 81.6123 40.0037 81.4138C39.7527 81.4017 39.5065 81.4566 39.3967 81.5357C39.3261 81.6387 39.2674 81.7494 39.2218 81.8657C38.6321 83.311 38.8846 85.1943 37.987 86.6141C37.5785 87.25 36.5875 87.395 35.9501 87.4923C34.4768 87.6918 33.0782 87.7332 31.6623 87.7867C30.2049 87.8214 28.7533 87.8725 27.3032 87.8556C26.725 87.8267 26.3463 87.1811 26.5969 86.6618L28.9094 81.6441C29.1464 81.1502 29.8908 81.4258 29.7511 81.9524L28.2792 87.2775L27.4284 86.073C28.8256 86.0581 30.2184 86.0378 31.6054 85.995C33.2863 85.8986 35.0414 85.9511 36.6024 85.5132C36.6212 85.506 36.5985 85.5132 36.5899 85.5204C36.5812 85.5276 36.5186 85.5753 36.5388 85.5551C36.7117 85.266 36.7797 84.8411 36.8592 84.4398C37.1169 83.1342 37.1333 81.7038 37.9436 80.4815C38.4148 79.8157 39.3726 79.5825 40.0765 79.623C42.2237 79.7155 43.3044 81.4648 43.222 83.4575C43.2514 84.1401 43.0365 84.9543 43.2417 85.5262C43.2504 85.5435 43.2962 85.5715 43.2465 85.5421C43.3549 85.5941 43.7495 85.6018 43.9379 85.6052C45.521 85.571 47.6037 85.6052 48.7985 86.947C49.8796 88.2646 49.6301 90.1267 49.1502 91.6202L49.1897 91.1692C49.5646 93.3343 49.5968 95.9711 48.219 97.9141C47.7549 98.567 47.1954 99.1464 46.5592 99.6331C45.8544 100.139 45.1419 100.414 44.4341 100.665C42.3427 101.349 40.2167 101.665 38.0362 101.869L38.3214 101.799C35.4703 102.954 32.5027 103.798 29.4702 104.314C24.9338 105.028 19.4974 105.151 15.8085 101.958C12.1364 98.5924 11.5688 93.025 12.9178 88.465C15.7377 80.0552 24.1692 72.7172 32.3618 69.7008C35.2462 68.6029 38.2876 67.9448 41.3537 67.6547C41.4716 67.6428 41.5907 67.6545 41.7042 67.6889C41.8176 67.7234 41.923 67.78 42.0144 67.8555C42.1058 67.931 42.1813 68.0239 42.2365 68.1288C42.2917 68.2337 42.3256 68.3485 42.3362 68.4666C42.3467 68.5846 42.3337 68.7036 42.298 68.8167C42.2622 68.9297 42.2044 69.0345 42.1278 69.125C42.0513 69.2155 41.9575 69.2899 41.852 69.3439C41.7465 69.398 41.6313 69.4305 41.5131 69.4397V69.4412Z" fill="#371A45"/>
<path d="M19.1694 89.0422C19.1694 89.0422 21.2892 87.356 27.4406 86.9706Z" fill="white"/>
<path d="M18.89 88.6905C20.1199 87.7751 21.5812 87.2895 23.0332 86.881C24.4154 86.4955 25.9586 86.2474 27.3841 86.0759C28.6237 85.9622 28.7697 87.7833 27.5229 87.8638C25.445 87.897 23.2881 88.0618 21.2902 88.6414C20.6398 88.8341 19.9793 89.0673 19.4021 89.419C18.9314 89.6998 18.466 89.0383 18.8895 88.6905H18.89Z" fill="#371A45"/>
<path d="M20.2226 103.945C20.1151 103.945 20.0091 103.919 19.9136 103.87C19.8181 103.82 19.7358 103.749 19.6738 103.661C17.6133 100.75 17.092 97.7783 18.1244 94.8274C19.8314 89.9485 25.1102 86.9456 27.2536 86.3246C27.3408 86.2912 27.4339 86.2762 27.5272 86.2806C27.6204 86.2851 27.7117 86.3089 27.7953 86.3504C27.8789 86.392 27.953 86.4505 28.0128 86.5221C28.0726 86.5938 28.1169 86.6771 28.1429 86.7668C28.1689 86.8564 28.1759 86.9505 28.1636 87.0431C28.1514 87.1356 28.12 87.2246 28.0716 87.3044C28.0231 87.3842 27.9586 87.4531 27.8822 87.5067C27.8057 87.5603 27.719 87.5974 27.6275 87.6157C25.472 88.242 20.8436 91.1255 19.393 95.2716C18.5128 97.7879 18.9762 100.349 20.7704 102.884C20.8416 102.984 20.8838 103.102 20.8924 103.225C20.9009 103.348 20.8756 103.471 20.819 103.58C20.7625 103.69 20.6769 103.782 20.5717 103.846C20.4665 103.91 20.3458 103.944 20.2226 103.944V103.945Z" fill="#371A45"/>
<path d="M83.4557 28.4017C83.4557 28.4017 91.6117 31.4937 92.4499 33.0036C94.0042 35.8027 93.7156 52.2563 89.4148 56.5455C87.7314 58.2255 75.3638 59.7951 75.3638 59.7951L83.4557 28.4017Z" fill="white"/>
<g opacity="0.2">
<path d="M75.3655 59.7949C75.3655 59.7949 87.7331 58.2248 89.4155 56.5449C91.0979 54.8649 92.1616 51.3417 92.7441 47.4947C92.6077 47.6181 88.2395 51.3879 79.5256 43.7248L79.5097 43.7113L75.3655 59.7949Z" fill="#371A45"/>
</g>
<path d="M48.0982 45.574V45.7142L48.0085 45.6453L48.0982 45.574Z" fill="#D8D8D8"/>
<path d="M48.0086 45.6453L47.9194 45.7142V45.574L48.0086 45.6453Z" fill="#D8D8D8"/>
<path d="M21.071 59.7951C21.071 59.7951 8.70332 58.225 7.02096 56.545C5.3386 54.8651 4.27484 51.3418 3.69237 47.4949C2.78085 41.491 3.04294 34.7129 3.99059 33.0059C4.8284 31.4961 12.9844 28.4021 12.9844 28.4021L16.9292 43.7134L21.071 59.7951Z" fill="white"/>
<g opacity="0.2">
<path d="M21.071 59.7949C21.071 59.7949 8.70333 58.2248 7.02097 56.5449C5.33861 54.8649 4.27485 51.3417 3.69238 47.4947C3.82921 47.6181 8.19698 51.3879 16.9113 43.7248C16.9157 43.7205 16.9224 43.7157 16.9268 43.7113L21.071 59.7949Z" fill="#371A45"/>
</g>
<path d="M74.1685 60.8503L82.8375 27.2088L83.7731 27.5634C86.3174 28.527 92.3333 30.9469 93.2333 32.5686C94.9556 35.6712 94.7369 52.5025 90.0497 57.1801C88.2411 58.9843 77.5944 60.4152 75.4784 60.684L74.1685 60.8503ZM84.0718 29.6008L76.5648 58.7319C82.1308 57.961 87.9347 56.7605 88.7836 55.9116C92.7539 51.9499 93.0589 35.9463 91.6666 33.4387C91.2484 32.7502 87.5724 30.9884 84.0718 29.6008V29.6008Z" fill="#371A45"/>
<path d="M22.2691 60.8503L20.9592 60.684C18.8432 60.4152 8.19646 58.9843 6.38836 57.1801C1.70069 52.5025 1.48196 35.6712 3.2043 32.5686C4.10474 30.9469 10.1202 28.5284 12.6645 27.5634L13.6001 27.2088L22.2691 60.8503ZM12.3662 29.6013C8.86469 30.986 5.18777 32.7507 4.77007 33.4401C3.37919 35.9454 3.68367 51.9499 7.65399 55.9116C8.50432 56.7605 14.3068 57.961 19.8728 58.7319L12.3662 29.6013Z" fill="#371A45"/>
<path d="M48.2157 76.5286C69.1009 76.5286 86.0317 59.5978 86.0317 38.7126C86.0317 17.8273 69.1009 0.896545 48.2157 0.896545C27.3305 0.896545 10.3997 17.8273 10.3997 38.7126C10.3997 59.5978 27.3305 76.5286 48.2157 76.5286Z" fill="white"/>
<g opacity="0.2">
<path d="M86.0326 38.7115C86.0326 59.5969 69.1021 76.5275 48.2166 76.5275C27.3312 76.5275 10.3972 59.5969 10.3972 38.7115C10.3957 36.5438 10.5808 34.38 10.9503 32.2441C14.0182 50.0472 29.5353 63.5904 48.2156 63.5904C66.896 63.5904 82.4106 50.0472 85.4786 32.2441C85.8484 34.38 86.0338 36.5438 86.0326 38.7115Z" fill="#371A45"/>
</g>
<path d="M48.217 77.4246C26.871 77.4246 9.50488 60.0585 9.50488 38.7125C9.50488 17.3665 26.8695 0.000396729 48.217 0.000396729C69.5645 0.000396729 86.9291 17.3665 86.9291 38.7125C86.9291 60.0585 69.5597 77.4246 48.217 77.4246ZM48.217 1.7926C27.8591 1.7926 11.2966 18.3546 11.2966 38.7125C11.2966 59.0704 27.8591 75.6329 48.217 75.6329C68.5749 75.6329 85.1369 59.0704 85.1369 38.7125C85.1369 18.3546 68.5735 1.7926 48.217 1.7926Z" fill="#371A45"/>
<path d="M48.217 77.4246C26.871 77.4246 9.50488 60.0585 9.50488 38.7125C9.50488 17.3665 26.8695 0.000396729 48.217 0.000396729C69.5645 0.000396729 86.9291 17.3665 86.9291 38.7125C86.9291 60.0585 69.5597 77.4246 48.217 77.4246ZM48.217 1.7926C27.8591 1.7926 11.2966 18.3546 11.2966 38.7125C11.2966 59.0704 27.8591 75.6329 48.217 75.6329C68.5749 75.6329 85.1369 59.0704 85.1369 38.7125C85.1369 18.3546 68.5735 1.7926 48.217 1.7926Z" fill="#371A45"/>
<path d="M48.217 77.4246C26.871 77.4246 9.50488 60.0585 9.50488 38.7125C9.50488 17.3665 26.8695 0.000396729 48.217 0.000396729C69.5645 0.000396729 86.9291 17.3665 86.9291 38.7125C86.9291 60.0585 69.5597 77.4246 48.217 77.4246ZM48.217 1.7926C27.8591 1.7926 11.2966 18.3546 11.2966 38.7125C11.2966 59.0704 27.8591 75.6329 48.217 75.6329C68.5749 75.6329 85.1369 59.0704 85.1369 38.7125C85.1369 18.3546 68.5735 1.7926 48.217 1.7926Z" fill="#371A45"/>
<path d="M48.217 77.4243C30.5778 77.4243 15.1807 65.5244 10.7527 48.4812C10.7455 48.4604 10.7392 48.4397 10.7339 48.418C9.55347 43.8366 9.2199 39.078 9.74964 34.3767C11.9273 14.7809 28.4642 0.0010376 48.217 0.0010376C67.9698 0.0010376 84.5121 14.7853 86.6882 34.3902C87.2118 39.0868 86.8785 43.8395 85.7045 48.4171C85.6987 48.4392 85.6924 48.4614 85.6852 48.4826C81.25 65.5259 65.85 77.4243 48.217 77.4243ZM12.4746 47.983C16.6814 64.2636 31.3775 75.6321 48.217 75.6321C65.0565 75.6321 79.7536 64.2622 83.9648 47.9815C83.9705 47.957 83.9778 47.9334 83.986 47.9088C85.0934 43.5608 85.4058 39.0483 84.9081 34.5892C82.8292 15.8919 67.0544 1.79276 48.217 1.79276C29.3796 1.79276 13.6096 15.8871 11.5308 34.5771C11.3749 35.9499 11.297 37.3305 11.2976 38.7122C11.295 41.8141 11.6835 44.904 12.4538 47.9088C12.4587 47.9334 12.4659 47.9579 12.4722 47.983H12.4746Z" fill="#371A45"/>
<path d="M84.7144 29.6913C84.5393 29.6913 84.3679 29.6399 84.2216 29.5436C84.0753 29.4473 83.9604 29.3102 83.8911 29.1493C77.9171 15.2766 63.9118 6.31319 48.2156 6.31319C32.529 6.31319 18.5281 15.2689 12.5464 29.1296C12.4551 29.3354 12.2898 29.4993 12.0832 29.5888C11.8766 29.6782 11.6439 29.6866 11.4313 29.6123C11.2188 29.538 11.0421 29.3864 10.9362 29.1877C10.8304 28.989 10.8032 28.7577 10.8602 28.5399C15.4192 11.7361 30.7806 0 48.217 0C65.6636 0 81.0284 11.7447 85.5802 28.5611C85.6159 28.6939 85.6206 28.8332 85.594 28.9681C85.5674 29.1031 85.5101 29.2301 85.4265 29.3393C85.343 29.4486 85.2355 29.5372 85.1123 29.5984C84.989 29.6595 84.8534 29.6915 84.7159 29.6918L84.7144 29.6913ZM48.217 4.5205C56.3624 4.5205 64.212 6.83302 70.9169 11.21C73.7335 13.0433 76.3082 15.2238 78.5805 17.7C71.824 7.95941 60.5659 1.79269 48.217 1.79269C35.9163 1.79269 24.6982 7.91702 17.9322 17.5906C25.4488 9.40956 36.375 4.5205 48.217 4.5205Z" fill="#371A45"/>
<path d="M86.0293 38.7135C86.0315 41.9116 85.6292 45.0972 84.8321 48.1944C84.8312 48.1944 84.8303 48.1947 84.8297 48.1954C84.829 48.196 84.8287 48.1968 84.8287 48.1977C78.2684 60.8718 64.3359 71.7773 48.2138 71.7773C32.0916 71.7773 18.1611 60.8718 11.6022 48.1977C11.6022 48.1968 11.6018 48.196 11.6012 48.1954C11.6006 48.1947 11.5997 48.1944 11.5988 48.1944C10.799 45.0976 10.3959 41.9118 10.3992 38.7135C10.399 37.2988 10.4794 35.8852 10.6401 34.4797C15.7416 20.3636 30.6338 10.15 48.2186 10.15C65.8034 10.15 80.7013 20.3704 85.7971 34.4893C85.9531 35.8919 86.0307 37.3022 86.0293 38.7135V38.7135Z" fill="#371A45"/>
<g opacity="0.35">
<path d="M86.0307 38.7144C86.0336 41.9125 85.6318 45.0981 84.835 48.1953C84.8341 48.1953 84.8332 48.1957 84.8326 48.1963C84.832 48.1969 84.8316 48.1978 84.8316 48.1987C78.2717 60.8727 64.3393 71.7777 48.2167 71.7777C32.094 71.7777 18.163 60.8727 11.6022 48.1987C11.6022 48.1978 11.6018 48.1969 11.6012 48.1963C11.6006 48.1957 11.5997 48.1953 11.5988 48.1953C11.1273 46.3692 10.7935 44.5103 10.6001 42.6342C19.0793 52.1594 31.407 59.0897 45.1318 59.0897C62.6174 59.0897 77.8444 47.8427 85.7263 34.3076C85.7503 34.3698 85.7744 34.4286 85.7956 34.4907C85.9524 35.8932 86.0309 37.3033 86.0307 38.7144Z" fill="#111A28"/>
</g>
<path d="M48.2136 72.259C40.5413 72.259 32.8767 69.7966 26.0519 65.1384C19.8577 60.9117 14.5813 54.9859 11.191 48.4492C11.1651 48.4076 11.1458 48.3622 11.1337 48.3148C10.3234 45.1787 9.91414 41.9525 9.91578 38.7135C9.91488 37.2808 9.9953 35.8492 10.1567 34.4257C10.1606 34.3884 10.1692 34.3519 10.1822 34.3168C12.7525 27.2043 17.6979 21.0853 24.4784 16.6202C31.3856 12.0732 39.5927 9.66962 48.2121 9.66962C56.8316 9.66962 65.042 12.0746 71.9502 16.624C78.7336 21.0916 83.6771 27.213 86.2459 34.3274C86.259 34.3628 86.2675 34.3997 86.2714 34.4372C86.7897 39.0842 86.4599 43.7866 85.2982 48.3157C85.2858 48.3631 85.2665 48.4084 85.2409 48.4501C81.8506 54.9864 76.5733 60.9127 70.3781 65.1393C63.5514 69.7967 55.8863 72.259 48.2136 72.259ZM12.0486 48.0146C18.0665 59.6095 31.5735 71.2955 48.2136 71.2955C64.8536 71.2955 78.364 59.6095 84.3819 48.0146C85.4969 43.6361 85.8153 39.0927 85.3218 34.6015C80.1163 20.2629 65.2121 10.6337 48.2136 10.6337C31.2151 10.6337 16.3166 20.259 11.1087 34.5919C10.6097 39.0867 10.9282 43.6346 12.0486 48.0161V48.0146Z" fill="#371A45"/>
<g opacity="0.5">
<path d="M79.5998 37.8598C80.174 34.2786 78.5358 31.0382 75.9406 30.622C73.3454 30.2059 70.7761 32.7716 70.2019 36.3528C69.6276 39.9339 71.2659 43.1744 73.8611 43.5905C76.4562 44.0067 79.0255 41.4409 79.5998 37.8598Z" fill="white"/>
</g>
<g opacity="0.5">
<path d="M71.7187 50.2725C72.2015 48.6743 71.4812 47.0428 70.1098 46.6285C68.7383 46.2142 67.2352 47.174 66.7524 48.7722C66.2696 50.3705 66.9899 52.002 68.3614 52.4163C69.7328 52.8306 71.2359 51.8708 71.7187 50.2725Z" fill="white"/>
</g>
<g opacity="0.5">
<path d="M19.2411 50.0496C19.2411 50.0496 12.9216 31.2604 22.9599 23.5183C32.9982 15.7761 47.661 15.5102 47.3377 16.4574C47.3377 16.4574 31.1857 20.7158 25.0946 33.6765C20.3964 43.6709 19.2411 50.0496 19.2411 50.0496Z" fill="white"/>
</g>
</svg>
