<svg width="1203" height="1203" viewBox="0 0 1203 1203" fill="none" xmlns="http://www.w3.org/2000/svg">
<g filter="url(#filter0_f_113_828)">
<circle cx="601.5" cy="601.5" r="429.5" fill="url(#paint0_radial_113_828)" fill-opacity="0.6"/>
</g>
<g style="mix-blend-mode:overlay">
<path d="M521.07 513.16C312.617 537.539 158 627.015 158 733.665C158 859.07 371.781 960.731 635.493 960.731C899.204 960.731 1112.99 859.07 1112.99 733.665C1112.99 623.564 948.2 531.766 729.514 511" stroke="url(#paint1_angular_113_828)" stroke-width="1.70856" stroke-linecap="round"/>
</g>
<g style="mix-blend-mode:overlay">
<path d="M521.07 514.76C312.617 539.138 158 628.615 158 735.264C158 860.669 371.781 962.33 635.493 962.33C899.204 962.33 1112.99 860.669 1112.99 735.264C1112.99 625.164 948.2 533.366 729.514 512.599" stroke="url(#paint2_angular_113_828)" stroke-width="1.70856" stroke-linecap="round"/>
</g>
<g style="mix-blend-mode:overlay">
<path d="M745.746 518.28C956.303 541.946 1112.99 631.903 1112.99 739.263C1112.99 864.668 899.204 966.328 635.493 966.328C371.781 966.328 158 864.668 158 739.263C158 634.369 307.568 546.087 510.818 520.015" stroke="url(#paint3_angular_113_828)" stroke-width="1.70856" stroke-linecap="round"/>
</g>
<g style="mix-blend-mode:overlay">
<path d="M494.587 528.643C299.655 557.231 158 643.579 158 745.66C158 871.065 371.781 972.726 635.493 972.726C899.204 972.726 1112.99 871.065 1112.99 745.66C1112.99 640.27 961.999 551.65 757.279 526.046" stroke="url(#paint4_angular_113_828)" stroke-width="1.70856" stroke-linecap="round"/>
</g>
<g style="mix-blend-mode:overlay">
<path d="M774.791 537.204C970.552 565.553 1112.99 652.094 1112.99 754.456C1112.99 879.861 899.204 981.522 635.493 981.522C371.781 981.522 158 879.861 158 754.456C158 655.458 291.228 571.257 477.074 540.186" stroke="url(#paint5_angular_113_828)" stroke-width="1.70856" stroke-linecap="round"/>
</g>
<rect x="276" y="214" width="630" height="630" rx="315" fill="url(#paint6_linear_113_828)"/>
<mask id="mask0_113_828" style="mask-type:alpha" maskUnits="userSpaceOnUse" x="773" y="776" width="252" height="289">
<rect x="773.781" y="776.635" width="251.044" height="287.992" fill="url(#paint7_linear_113_828)"/>
</mask>
<g mask="url(#mask0_113_828)">
<g opacity="0.8">
<path d="M906.001 793.764L968.029 827.391L997.682 876.607L953.114 1038.21L906 1010.96L906.001 793.764Z" fill="url(#paint8_linear_113_828)"/>
<path opacity="0.8" d="M906 793.764L906 905.371L960.783 873.104L968.028 827.391L906 793.764Z" fill="url(#paint9_linear_113_828)" fill-opacity="0.7"/>
<g opacity="0.8">
<path d="M905.999 793.766L843.961 827.398L814.318 876.608L858.886 1038.21L906 1010.96L905.999 793.766Z" fill="url(#paint10_linear_113_828)" fill-opacity="0.7"/>
<path d="M905.999 793.766L843.961 827.398L814.318 876.608L858.886 1038.21L906 1010.96L905.999 793.766Z" fill="url(#paint11_linear_113_828)" fill-opacity="0.5"/>
</g>
<path d="M953.116 1038.21L906 1010.96L906 1065.46L953.116 1038.21Z" fill="url(#paint12_linear_113_828)"/>
<path d="M906.001 879.579L874.804 861.536L906.001 843.494L937.198 861.536L906.001 879.579Z" fill="url(#paint13_linear_113_828)" fill-opacity="0.5"/>
<path d="M858.884 1038.21L906 1065.46L906 1010.96L858.884 1038.21Z" fill="url(#paint14_linear_113_828)" fill-opacity="0.8"/>
<path d="M906.001 1053.97L880.73 1039.36L906.001 1024.74L931.272 1039.36L906.001 1053.97Z" fill="url(#paint15_linear_113_828)" fill-opacity="0.6"/>
<path opacity="0.8" d="M906 793.764L905.999 905.371L851.217 873.104L843.972 827.391L906 793.764Z" fill="url(#paint16_linear_113_828)"/>
<path d="M814.319 876.608L843.972 827.391L851.217 873.104L814.319 876.608Z" fill="url(#paint17_linear_113_828)" fill-opacity="0.7"/>
<path d="M906.001 922.097L855.228 892.733L906.001 863.369L956.774 892.733L906.001 922.097Z" fill="url(#paint18_linear_113_828)" fill-opacity="0.7"/>
<path d="M906.001 922.097L855.228 892.733L906.001 863.369L956.774 892.733L906.001 922.097Z" fill="url(#paint19_linear_113_828)" fill-opacity="0.7"/>
<path d="M906.002 863.37L855.229 892.732L874.805 861.535L906.002 843.493L906.002 863.37Z" fill="url(#paint20_linear_113_828)" fill-opacity="0.9"/>
<path d="M906.001 863.362L956.774 892.725L931.271 1039.36L906.001 1024.74L906.001 863.362Z" fill="url(#paint21_linear_113_828)" fill-opacity="0.6"/>
<path d="M906 863.362L855.228 892.725L880.731 1039.36L906 1024.74L906 863.362Z" fill="url(#paint22_linear_113_828)" fill-opacity="0.9"/>
<path d="M906.002 863.37L956.775 892.732L937.199 861.535L906.002 843.493L906.002 863.37Z" fill="url(#paint23_linear_113_828)" fill-opacity="0.9"/>
<path d="M997.681 876.608L968.028 827.391L960.784 873.104L997.681 876.608Z" fill="url(#paint24_linear_113_828)" fill-opacity="0.7"/>
</g>
</g>
<g filter="url(#filter1_f_113_828)">
<ellipse cx="906" cy="821.333" rx="173" ry="75.5522" fill="url(#paint25_radial_113_828)" fill-opacity="0.6"/>
</g>
<g filter="url(#filter2_f_113_828)">
<ellipse cx="906" cy="821.333" rx="122.884" ry="53.6655" fill="url(#paint26_radial_113_828)" fill-opacity="0.6"/>
</g>
<path d="M905.999 759.097L996.043 811.173L905.999 863.249L815.954 811.173L905.999 759.097Z" fill="url(#paint27_linear_113_828)" fill-opacity="0.5"/>
<path d="M905.999 828.625L843.971 794.999L814.318 745.782L858.886 584.183L906 611.432L905.999 828.625Z" fill="url(#paint28_linear_113_828)"/>
<path opacity="0.8" d="M906 828.625L905.999 717.018L851.217 749.285L843.972 794.998L906 828.625Z" fill="url(#paint29_linear_113_828)" fill-opacity="0.7"/>
<g opacity="0.8">
<path d="M906 828.624L968.039 794.991L997.681 745.782L953.114 584.183L906 611.432L906 828.624Z" fill="url(#paint30_linear_113_828)" fill-opacity="0.7"/>
<path d="M906 828.624L968.039 794.991L997.681 745.782L953.114 584.183L906 611.432L906 828.624Z" fill="url(#paint31_linear_113_828)" fill-opacity="0.5"/>
</g>
<path d="M858.884 584.183L906 611.432L906 556.934L858.884 584.183Z" fill="url(#paint32_linear_113_828)"/>
<path d="M905.999 742.81L937.196 760.853L905.999 778.895L874.802 760.853L905.999 742.81Z" fill="url(#paint33_linear_113_828)" fill-opacity="0.5"/>
<path d="M953.116 584.183L906 556.934L906 611.432L953.116 584.183Z" fill="url(#paint34_linear_113_828)" fill-opacity="0.8"/>
<path d="M905.999 568.418L931.27 583.034L905.999 597.649L880.728 583.034L905.999 568.418Z" fill="url(#paint35_linear_113_828)" fill-opacity="0.6"/>
<path opacity="0.8" d="M906 828.625L906.001 717.018L960.784 749.285L968.029 794.998L906 828.625Z" fill="url(#paint36_linear_113_828)"/>
<path d="M997.681 745.781L968.028 794.998L960.784 749.285L997.681 745.781Z" fill="url(#paint37_linear_113_828)" fill-opacity="0.7"/>
<path d="M905.999 700.292L956.772 729.656L905.999 759.02L855.226 729.656L905.999 700.292Z" fill="url(#paint38_linear_113_828)" fill-opacity="0.7"/>
<path d="M905.999 700.292L956.772 729.656L905.999 759.02L855.226 729.656L905.999 700.292Z" fill="url(#paint39_linear_113_828)" fill-opacity="0.7"/>
<path d="M905.998 759.019L956.771 729.656L937.195 760.854L905.998 778.896V759.019Z" fill="url(#paint40_linear_113_828)" fill-opacity="0.9"/>
<path d="M905.999 759.027L855.226 729.664L880.729 583.033L905.999 597.649L905.999 759.027Z" fill="url(#paint41_linear_113_828)" fill-opacity="0.6"/>
<path d="M906 759.027L956.772 729.664L931.269 583.033L906 597.649L906 759.027Z" fill="url(#paint42_linear_113_828)" fill-opacity="0.9"/>
<path d="M905.998 759.019L855.225 729.656L874.801 760.854L905.998 778.896V759.019Z" fill="url(#paint43_linear_113_828)" fill-opacity="0.9"/>
<path d="M814.319 745.781L843.972 794.998L851.217 749.285L814.319 745.781Z" fill="url(#paint44_linear_113_828)" fill-opacity="0.7"/>
<defs>
<filter id="filter0_f_113_828" x="0.199997" y="0.199997" width="1202.6" height="1202.6" filterUnits="userSpaceOnUse" color-interpolation-filters="sRGB">
<feFlood flood-opacity="0" result="BackgroundImageFix"/>
<feBlend mode="normal" in="SourceGraphic" in2="BackgroundImageFix" result="shape"/>
<feGaussianBlur stdDeviation="85.9" result="effect1_foregroundBlur_113_828"/>
</filter>
<filter id="filter1_f_113_828" x="725.592" y="738.373" width="360.816" height="165.921" filterUnits="userSpaceOnUse" color-interpolation-filters="sRGB">
<feFlood flood-opacity="0" result="BackgroundImageFix"/>
<feBlend mode="normal" in="SourceGraphic" in2="BackgroundImageFix" result="shape"/>
<feGaussianBlur stdDeviation="3.70408" result="effect1_foregroundBlur_113_828"/>
</filter>
<filter id="filter2_f_113_828" x="775.709" y="760.259" width="260.583" height="122.147" filterUnits="userSpaceOnUse" color-interpolation-filters="sRGB">
<feFlood flood-opacity="0" result="BackgroundImageFix"/>
<feBlend mode="normal" in="SourceGraphic" in2="BackgroundImageFix" result="shape"/>
<feGaussianBlur stdDeviation="3.70408" result="effect1_foregroundBlur_113_828"/>
</filter>
<radialGradient id="paint0_radial_113_828" cx="0" cy="0" r="1" gradientUnits="userSpaceOnUse" gradientTransform="translate(555.973 588.615) rotate(89.3883) scale(482.785)">
<stop stop-color="#2954A3"/>
<stop offset="1" stop-color="#101241"/>
</radialGradient>
<radialGradient id="paint1_angular_113_828" cx="0" cy="0" r="1" gradientUnits="userSpaceOnUse" gradientTransform="translate(642.381 755.459) scale(508.767 237.904)">
<stop offset="0.458333" stop-color="white"/>
<stop offset="0.717799" stop-color="white" stop-opacity="0"/>
<stop offset="0.782437" stop-color="white" stop-opacity="0"/>
<stop offset="1" stop-color="white" stop-opacity="0.4"/>
</radialGradient>
<radialGradient id="paint2_angular_113_828" cx="0" cy="0" r="1" gradientUnits="userSpaceOnUse" gradientTransform="translate(642.381 757.059) scale(508.767 237.905)">
<stop offset="0.458333" stop-color="white"/>
<stop offset="0.717799" stop-color="white" stop-opacity="0"/>
<stop offset="0.782437" stop-color="white" stop-opacity="0"/>
<stop offset="1" stop-color="white" stop-opacity="0.4"/>
</radialGradient>
<radialGradient id="paint3_angular_113_828" cx="0" cy="0" r="1" gradientUnits="userSpaceOnUse" gradientTransform="translate(642.381 761.825) scale(508.767 237.015)">
<stop offset="0.458333" stop-color="white"/>
<stop offset="0.717799" stop-color="white" stop-opacity="0"/>
<stop offset="0.782437" stop-color="white" stop-opacity="0"/>
<stop offset="1" stop-color="white" stop-opacity="0.4"/>
</radialGradient>
<radialGradient id="paint4_angular_113_828" cx="0" cy="0" r="1" gradientUnits="userSpaceOnUse" gradientTransform="translate(642.381 768.847) scale(508.767 236.29)">
<stop offset="0.458333" stop-color="white"/>
<stop offset="0.717799" stop-color="white" stop-opacity="0"/>
<stop offset="0.782437" stop-color="white" stop-opacity="0"/>
<stop offset="1" stop-color="white" stop-opacity="0.4"/>
</radialGradient>
<radialGradient id="paint5_angular_113_828" cx="0" cy="0" r="1" gradientUnits="userSpaceOnUse" gradientTransform="translate(642.381 778.721) scale(508.767 235.041)">
<stop offset="0.458333" stop-color="white"/>
<stop offset="0.717799" stop-color="white" stop-opacity="0"/>
<stop offset="0.782437" stop-color="white" stop-opacity="0"/>
<stop offset="1" stop-color="white" stop-opacity="0.4"/>
</radialGradient>
<linearGradient id="paint6_linear_113_828" x1="402" y1="272" x2="800" y2="822" gradientUnits="userSpaceOnUse">
<stop stop-color="#C961DE"/>
<stop offset="1" stop-color="#2954A3"/>
</linearGradient>
<linearGradient id="paint7_linear_113_828" x1="899.303" y1="662.877" x2="899.303" y2="974.172" gradientUnits="userSpaceOnUse">
<stop/>
<stop offset="1" stop-opacity="0"/>
</linearGradient>
<linearGradient id="paint8_linear_113_828" x1="725.541" y1="1055.31" x2="712.318" y2="872.577" gradientUnits="userSpaceOnUse">
<stop stop-color="#3D79ED"/>
<stop offset="0.265625" stop-color="#3458C1" stop-opacity="0.7"/>
<stop offset="0.618879" stop-color="#3753B8" stop-opacity="0.7"/>
<stop offset="0.895833" stop-color="#5BB0FF" stop-opacity="0.9"/>
<stop offset="1" stop-color="#5BB0FF" stop-opacity="0.6"/>
</linearGradient>
<linearGradient id="paint9_linear_113_828" x1="913.336" y1="808.493" x2="945.246" y2="879.262" gradientUnits="userSpaceOnUse">
<stop offset="0.046875" stop-color="white"/>
<stop offset="0.427083" stop-color="#DFF4FF"/>
<stop offset="0.994792" stop-color="#0E42C8"/>
</linearGradient>
<linearGradient id="paint10_linear_113_828" x1="814.319" y1="787.031" x2="920.514" y2="868.055" gradientUnits="userSpaceOnUse">
<stop offset="0.280479" stop-color="white"/>
<stop offset="0.469567" stop-color="#FF79DA"/>
<stop offset="0.692708" stop-color="#3D3AE3" stop-opacity="0.9"/>
</linearGradient>
<linearGradient id="paint11_linear_113_828" x1="814.319" y1="798.358" x2="919.298" y2="899.112" gradientUnits="userSpaceOnUse">
<stop offset="0.161458" stop-color="white"/>
<stop offset="1" stop-color="white" stop-opacity="0"/>
</linearGradient>
<linearGradient id="paint12_linear_113_828" x1="905.884" y1="1064.55" x2="930.625" y2="1024.01" gradientUnits="userSpaceOnUse">
<stop stop-color="#1AD6FF"/>
<stop offset="1" stop-color="#496BE4" stop-opacity="0.6"/>
<stop offset="1" stop-color="#1F3CA3"/>
</linearGradient>
<linearGradient id="paint13_linear_113_828" x1="888.095" y1="851.358" x2="931.026" y2="861.536" gradientUnits="userSpaceOnUse">
<stop stop-color="#81FF6C"/>
<stop offset="1" stop-color="#31F3FF"/>
</linearGradient>
<linearGradient id="paint14_linear_113_828" x1="858.884" y1="1041" x2="903.797" y2="1045.17" gradientUnits="userSpaceOnUse">
<stop stop-color="#FF79C9"/>
<stop offset="1" stop-color="#1F3CA3"/>
</linearGradient>
<linearGradient id="paint15_linear_113_828" x1="885.614" y1="1035.93" x2="915.423" y2="1039.36" gradientUnits="userSpaceOnUse">
<stop stop-color="#52FF6E"/>
<stop offset="1" stop-color="#31FFFF"/>
</linearGradient>
<linearGradient id="paint16_linear_113_828" x1="856.104" y1="811.473" x2="879.305" y2="893.818" gradientUnits="userSpaceOnUse">
<stop offset="0.103809" stop-color="white"/>
<stop offset="0.436548" stop-color="#FFAACE" stop-opacity="0.8"/>
<stop offset="0.71875" stop-color="#6F97FF" stop-opacity="0.8"/>
</linearGradient>
<linearGradient id="paint17_linear_113_828" x1="832.768" y1="840.09" x2="851.217" y2="876.608" gradientUnits="userSpaceOnUse">
<stop stop-color="white"/>
<stop offset="0.591466" stop-color="#FF94D4"/>
<stop offset="1" stop-color="#C994FF"/>
</linearGradient>
<linearGradient id="paint18_linear_113_828" x1="876.859" y1="876.168" x2="946.73" y2="892.733" gradientUnits="userSpaceOnUse">
<stop stop-color="#81FF6C"/>
<stop offset="1" stop-color="#31F3FF"/>
</linearGradient>
<linearGradient id="paint19_linear_113_828" x1="906.001" y1="865.477" x2="906.001" y2="923.437" gradientUnits="userSpaceOnUse">
<stop stop-color="white"/>
<stop offset="1" stop-color="white" stop-opacity="0"/>
</linearGradient>
<linearGradient id="paint20_linear_113_828" x1="852.753" y1="892.732" x2="904.716" y2="845.814" gradientUnits="userSpaceOnUse">
<stop offset="0.149863" stop-color="white"/>
<stop offset="0.300261" stop-color="#8CFF31"/>
<stop offset="0.449118" stop-color="#45C3EB"/>
<stop offset="1" stop-color="#72E6FF"/>
</linearGradient>
<linearGradient id="paint21_linear_113_828" x1="928.67" y1="863.362" x2="1009.21" y2="919.796" gradientUnits="userSpaceOnUse">
<stop stop-color="#6CFFED"/>
<stop offset="1" stop-color="#197F9F"/>
</linearGradient>
<linearGradient id="paint22_linear_113_828" x1="728.561" y1="929.344" x2="812.686" y2="1017.43" gradientUnits="userSpaceOnUse">
<stop offset="0.464598" stop-color="white"/>
<stop offset="0.790313" stop-color="#6DF390"/>
<stop offset="1" stop-color="#21CAFF" stop-opacity="0.9"/>
</linearGradient>
<linearGradient id="paint23_linear_113_828" x1="956.775" y1="892.732" x2="907.286" y2="845.882" gradientUnits="userSpaceOnUse">
<stop offset="0.125" stop-color="white"/>
<stop offset="0.297772" stop-color="#8CFF31"/>
<stop offset="0.447917" stop-color="#5BF5FF"/>
</linearGradient>
<linearGradient id="paint24_linear_113_828" x1="966.098" y1="823.397" x2="973.252" y2="876.608" gradientUnits="userSpaceOnUse">
<stop stop-color="#DFF4FF"/>
<stop offset="0.994792" stop-color="#0E42C8"/>
</linearGradient>
<radialGradient id="paint25_radial_113_828" cx="0" cy="0" r="1" gradientUnits="userSpaceOnUse" gradientTransform="translate(906 821.333) rotate(90) scale(75.5522 173)">
<stop stop-color="#739AFF"/>
<stop offset="1" stop-color="#6978FF" stop-opacity="0"/>
</radialGradient>
<radialGradient id="paint26_radial_113_828" cx="0" cy="0" r="1" gradientUnits="userSpaceOnUse" gradientTransform="translate(906 821.333) rotate(90) scale(53.6655 122.884)">
<stop stop-color="#739AFF"/>
<stop offset="1" stop-color="#6978FF" stop-opacity="0"/>
</radialGradient>
<linearGradient id="paint27_linear_113_828" x1="951.021" y1="766.151" x2="860.977" y2="856.195" gradientUnits="userSpaceOnUse">
<stop stop-color="#6C7BFF"/>
<stop offset="1" stop-color="#31B5FF"/>
</linearGradient>
<linearGradient id="paint28_linear_113_828" x1="1086.46" y1="567.08" x2="1099.68" y2="749.812" gradientUnits="userSpaceOnUse">
<stop stop-color="#3D79ED"/>
<stop offset="0.265625" stop-color="#3458C1" stop-opacity="0.7"/>
<stop offset="0.618879" stop-color="#3753B8" stop-opacity="0.7"/>
<stop offset="0.895833" stop-color="#5BB0FF" stop-opacity="0.9"/>
<stop offset="1" stop-color="#5BB0FF" stop-opacity="0.6"/>
</linearGradient>
<linearGradient id="paint29_linear_113_828" x1="898.664" y1="813.896" x2="866.754" y2="743.127" gradientUnits="userSpaceOnUse">
<stop offset="0.046875" stop-color="white"/>
<stop offset="0.427083" stop-color="#DFF4FF"/>
<stop offset="0.994792" stop-color="#0E42C8"/>
</linearGradient>
<linearGradient id="paint30_linear_113_828" x1="997.681" y1="835.359" x2="891.486" y2="754.335" gradientUnits="userSpaceOnUse">
<stop offset="0.280479" stop-color="white"/>
<stop offset="0.469567" stop-color="#FF79DA"/>
<stop offset="0.692708" stop-color="#3D3AE3" stop-opacity="0.9"/>
</linearGradient>
<linearGradient id="paint31_linear_113_828" x1="997.681" y1="824.031" x2="892.702" y2="723.278" gradientUnits="userSpaceOnUse">
<stop offset="0.161458" stop-color="white"/>
<stop offset="1" stop-color="white" stop-opacity="0"/>
</linearGradient>
<linearGradient id="paint32_linear_113_828" x1="906.116" y1="557.839" x2="881.375" y2="598.379" gradientUnits="userSpaceOnUse">
<stop stop-color="#1AD6FF"/>
<stop offset="1" stop-color="#496BE4" stop-opacity="0.6"/>
<stop offset="1" stop-color="#1F3CA3"/>
</linearGradient>
<linearGradient id="paint33_linear_113_828" x1="923.905" y1="771.031" x2="880.974" y2="760.853" gradientUnits="userSpaceOnUse">
<stop stop-color="#81FF6C"/>
<stop offset="1" stop-color="#31F3FF"/>
</linearGradient>
<linearGradient id="paint34_linear_113_828" x1="953.116" y1="581.388" x2="908.203" y2="577.215" gradientUnits="userSpaceOnUse">
<stop stop-color="#FF79C9"/>
<stop offset="1" stop-color="#1F3CA3"/>
</linearGradient>
<linearGradient id="paint35_linear_113_828" x1="926.386" y1="586.456" x2="896.577" y2="583.033" gradientUnits="userSpaceOnUse">
<stop stop-color="#52FF6E"/>
<stop offset="1" stop-color="#31FFFF"/>
</linearGradient>
<linearGradient id="paint36_linear_113_828" x1="955.897" y1="810.915" x2="932.695" y2="728.57" gradientUnits="userSpaceOnUse">
<stop offset="0.103809" stop-color="white"/>
<stop offset="0.436548" stop-color="#FFAACE" stop-opacity="0.8"/>
<stop offset="0.71875" stop-color="#6F97FF" stop-opacity="0.8"/>
</linearGradient>
<linearGradient id="paint37_linear_113_828" x1="979.232" y1="782.299" x2="960.784" y2="745.781" gradientUnits="userSpaceOnUse">
<stop stop-color="white"/>
<stop offset="0.591466" stop-color="#FF94D4"/>
<stop offset="1" stop-color="#C994FF"/>
</linearGradient>
<linearGradient id="paint38_linear_113_828" x1="935.141" y1="746.221" x2="865.27" y2="729.656" gradientUnits="userSpaceOnUse">
<stop stop-color="#81FF6C"/>
<stop offset="1" stop-color="#31F3FF"/>
</linearGradient>
<linearGradient id="paint39_linear_113_828" x1="905.999" y1="756.912" x2="905.999" y2="698.951" gradientUnits="userSpaceOnUse">
<stop stop-color="white"/>
<stop offset="1" stop-color="white" stop-opacity="0"/>
</linearGradient>
<linearGradient id="paint40_linear_113_828" x1="959.247" y1="729.656" x2="907.284" y2="776.575" gradientUnits="userSpaceOnUse">
<stop offset="0.149863" stop-color="white"/>
<stop offset="0.300261" stop-color="#8CFF31"/>
<stop offset="0.449118" stop-color="#45C3EB"/>
<stop offset="1" stop-color="#72E6FF"/>
</linearGradient>
<linearGradient id="paint41_linear_113_828" x1="883.33" y1="759.027" x2="802.792" y2="702.593" gradientUnits="userSpaceOnUse">
<stop stop-color="#6CFFED"/>
<stop offset="1" stop-color="#197F9F"/>
</linearGradient>
<linearGradient id="paint42_linear_113_828" x1="1083.44" y1="693.044" x2="999.314" y2="604.961" gradientUnits="userSpaceOnUse">
<stop offset="0.464598" stop-color="white"/>
<stop offset="0.790313" stop-color="#6DF390"/>
<stop offset="1" stop-color="#21CAFF" stop-opacity="0.9"/>
</linearGradient>
<linearGradient id="paint43_linear_113_828" x1="855.225" y1="729.656" x2="904.714" y2="776.507" gradientUnits="userSpaceOnUse">
<stop offset="0.125" stop-color="white"/>
<stop offset="0.297772" stop-color="#8CFF31"/>
<stop offset="0.447917" stop-color="#5BF5FF"/>
</linearGradient>
<linearGradient id="paint44_linear_113_828" x1="845.902" y1="798.992" x2="838.748" y2="745.781" gradientUnits="userSpaceOnUse">
<stop stop-color="#DFF4FF"/>
<stop offset="0.994792" stop-color="#0E42C8"/>
</linearGradient>
</defs>
</svg>
